<svg width="16" height="16" viewBox="0 0 16 16" fill="none" xmlns="http://www.w3.org/2000/svg">
<g clip-path="url(#clip0)">
<path d="M13.6596 2.34026C10.5391 -0.780258 5.46133 -0.780566 2.3405 2.34026C-0.780321 5.46108 -0.780014 10.5385 2.3405 13.6593C5.46102 16.7802 10.5387 16.7802 13.6596 13.6593C16.7801 10.5385 16.7801 5.46078 13.6596 2.34026ZM11.1563 11.156C10.9158 11.3964 10.5261 11.3964 10.2857 11.156L8.00004 8.87035L5.6057 11.2647C5.36528 11.5051 4.97556 11.5051 4.73515 11.2647C4.49473 11.0243 4.49473 10.6345 4.73515 10.3941L7.12948 7.99979L4.84381 5.71412C4.60339 5.4737 4.60339 5.08368 4.84381 4.84357C5.08423 4.60315 5.47395 4.60315 5.71437 4.84357L8.00004 7.12924L10.1767 4.95254C10.4172 4.71212 10.8069 4.71212 11.0473 4.95254C11.2877 5.19296 11.2877 5.58268 11.0473 5.8231L8.87059 7.99979L11.1563 10.2855C11.3967 10.5259 11.3967 10.9156 11.1563 11.156Z" fill="#CCCCCC"/>
</g>
<defs>
<clipPath id="clip0">
<rect width="16" height="16" fill="white"/>
</clipPath>
</defs>
</svg>
